# xmcd CD database file
#
# Track frame offsets:
#	151
#	127086
#	153471
#	202518
#
# Disc length: 3102 seconds
#
# Revision: 0
# Processed by: cddbd v1.4PL0 Copyright (c) Steve Scherf et al.
# Submitted via: CDex 1.50
#
DISCID=2b0c1c04
DTITLE=Joe McPhee and Joe Giardullo     - Specific Gravity 
DYEAR=1900
DGENRE=Jazz
TTITLE0=A Priori
TTITLE1=Specific Gravity
TTITLE2=After the Rain
TTITLE3=Sienna
EXTD=
EXTT0=
EXTT1=
EXTT2=
EXTT3=
PLAYORDER=
